<svg
  xmlns="http://www.w3.org/2000/svg"

  width="22"
  height="23"
  
  fill="none"
>
  <path d="M10.7083 6.70054L3.66696 14.1583V22.2074C3.66696 22.4158 3.73134 22.6156 3.84593 22.763C3.96053 22.9104 4.11596 22.9932 4.27802 22.9932L8.55776 22.9789C8.71929 22.9779 8.87394 22.8946 8.98787 22.7474C9.10181 22.6001 9.16577 22.4008 9.16577 22.1931V17.4925C9.16577 17.2841 9.23015 17.0843 9.34475 16.9369C9.45934 16.7895 9.61477 16.7067 9.77683 16.7067H12.2211C12.3832 16.7067 12.5386 16.7895 12.6532 16.9369C12.7678 17.0843 12.8322 17.2841 12.8322 17.4925V22.1897C12.8319 22.2931 12.8475 22.3955 12.8781 22.4911C12.9087 22.5868 12.9537 22.6737 13.0105 22.7469C13.0672 22.8201 13.1347 22.8782 13.2089 22.9179C13.2832 22.9575 13.3628 22.9779 13.4432 22.9779L17.7214 22.9932C17.8835 22.9932 18.0389 22.9104 18.1535 22.763C18.2681 22.6156 18.3325 22.4158 18.3325 22.2074V14.1529L11.2927 6.70054C11.2099 6.61475 11.1068 6.56797 11.0005 6.56797C10.8942 6.56797 10.7911 6.61475 10.7083 6.70054V6.70054ZM21.8308 11.7695L18.638 8.3851V1.58252C18.638 1.42621 18.5897 1.27631 18.5038 1.16578C18.4178 1.05526 18.3013 0.993164 18.1797 0.993164H16.041C15.9195 0.993164 15.8029 1.05526 15.7169 1.16578C15.631 1.27631 15.5827 1.42621 15.5827 1.58252V5.14858L12.1634 1.53095C11.8353 1.18371 11.4235 0.993858 10.9986 0.993858C10.5736 0.993858 10.1619 1.18371 9.83374 1.53095L0.166323 11.7695C0.119916 11.8188 0.0815212 11.8794 0.0533329 11.9478C0.0251445 12.0162 0.00771497 12.0911 0.00204025 12.1682C-0.00363448 12.2453 0.00255679 12.323 0.0202603 12.397C0.0379638 12.471 0.0668326 12.5398 0.105217 12.5995L1.0791 14.122C1.11738 14.1818 1.16446 14.2314 1.21766 14.2678C1.27085 14.3042 1.32911 14.3268 1.3891 14.3342C1.44909 14.3417 1.50962 14.3338 1.56725 14.3111C1.62487 14.2884 1.67845 14.2514 1.72492 14.202L10.7083 4.68692C10.7911 4.60114 10.8942 4.55436 11.0005 4.55436C11.1068 4.55436 11.2099 4.60114 11.2927 4.68692L20.2764 14.202C20.3228 14.2514 20.3763 14.2885 20.4339 14.3113C20.4914 14.334 20.5519 14.342 20.6118 14.3347C20.6718 14.3274 20.73 14.305 20.7832 14.2687C20.8364 14.2325 20.8835 14.1831 20.9219 14.1234L21.8958 12.6009C21.9341 12.5409 21.9629 12.4718 21.9803 12.3975C21.9978 12.3231 22.0037 12.2451 21.9977 12.1678C21.9917 12.0906 21.9738 12.0156 21.9452 11.9472C21.9165 11.8789 21.8777 11.8184 21.8308 11.7695V11.7695Z"
    fill="white"
  />
</svg>
